# xmcd
#
# Track frame offsets:
#	150
#	14635
#	27540
#	37272
#	53242
#	63250
#	76607
#	85812
#	94625
#	105195
#	117225
#	127310
#	139505
#	153585
#	166715
#	179575
#	191237
#	203512
#	215827
#	228672
#	243117
#	257322
#	271520
#	284480
#	296455
#
# Disc length: 4118 seconds
#
# Revision: 0
# Processed by: cddbd v1.5PL3 Copyright (c) Steve Scherf et al.
# Submitted via: audiograbber 1.80
#
DISCID=5f101419
DTITLE=bob luman - Luman, 1968-1977 cd5
DYEAR=1900
DGENRE=
TTITLE0=Labor Of Love 
TTITLE1=Blond Haired Woman 
TTITLE2=He's Got A Way With Women 
TTITLE3=I Still Miss Someone 
TTITLE4=Got To Have Room To Change My Mind 
TTITLE5=Sweet Dreams 
TTITLE6=Get Rhythm 
TTITLE7=What Do I Care 
TTITLE8=Big River 
TTITLE9=Here We Are Making Love Again 
TTITLE10=Hey Porter 
TTITLE11=I'm A Honky-Tonk Woman's Man 
TTITLE12=Put 'Em All Together And I'd Have You 
TTITLE13=Lonely Women 
TTITLE14=The Pay Phone 
TTITLE15=Wicked Lovin' Ways 
TTITLE16=He'll Be The One 
TTITLE17=Nothing Else Matters Like My Love 
TTITLE18=Strangers 
TTITLE19=A Christmas Tribute 
TTITLE20=Give Someone You Love 
TTITLE21=Jesus Was A Country Boy 
TTITLE22=Let Me Love Him Out Of You 
TTITLE23=Somebody's Gonna Do It Tonight 
TTITLE24=Proud Lady 
EXTD=
EXTT0=
EXTT1=
EXTT2=
EXTT3=
EXTT4=
EXTT5=
EXTT6=
EXTT7=
EXTT8=
EXTT9=
EXTT10=
EXTT11=
EXTT12=
EXTT13=
EXTT14=
EXTT15=
EXTT16=
EXTT17=
EXTT18=
EXTT19=
EXTT20=
EXTT21=
EXTT22=
EXTT23=
EXTT24=
PLAYORDER=
